<?xml version="1.0" encoding="UTF-8" standalone="no"?>
<!-- Created with Inkscape (http://www.inkscape.org/) -->

<svg
   xmlns:dc="http://purl.org/dc/elements/1.1/"
   xmlns:cc="http://creativecommons.org/ns#"
   xmlns:rdf="http://www.w3.org/1999/02/22-rdf-syntax-ns#"
   xmlns:svg="http://www.w3.org/2000/svg"
   xmlns="http://www.w3.org/2000/svg"
   xmlns:sodipodi="http://sodipodi.sourceforge.net/DTD/sodipodi-0.dtd"
   xmlns:inkscape="http://www.inkscape.org/namespaces/inkscape"
   width="222.48122mm"
   height="77.576912mm"
   viewBox="0 0 222.48122 77.576912"
   version="1.1"
   id="svg5"
   inkscape:version="0.92.4 (5da689c313, 2019-01-14)"
   sodipodi:docname="logo.svg">
  <metadata
     id="metadata11">
    <rdf:RDF>
      <cc:Work
         rdf:about="">
        <dc:format>image/svg+xml</dc:format>
        <dc:type
           rdf:resource="http://purl.org/dc/dcmitype/StillImage" />
      </cc:Work>
    </rdf:RDF>
  </metadata>
  <sodipodi:namedview
     id="namedview7"
     pagecolor="#ffffff"
     bordercolor="#999999"
     borderopacity="1"
     inkscape:pageshadow="0"
     inkscape:pageopacity="0"
     inkscape:pagecheckerboard="0"
     inkscape:document-units="mm"
     showgrid="false"
     inkscape:snap-global="true"
     fit-margin-top="0"
     fit-margin-left="0"
     fit-margin-right="0"
     fit-margin-bottom="0"
     inkscape:zoom="0.69130191"
     inkscape:cx="198.86878"
     inkscape:cy="278.4601"
     inkscape:window-width="1920"
     inkscape:window-height="1017"
     inkscape:window-x="-8"
     inkscape:window-y="-8"
     inkscape:window-maximized="1"
     inkscape:current-layer="layer1" />
  <defs
     id="defs2" />
  <g
     inkscape:label="Capa 1"
     inkscape:groupmode="layer"
     id="layer1"
     transform="translate(1.8773832,-105.56719)">
    <rect
       id="rect12079"
       width="222.48122"
       height="77.576912"
       x="-1.8773832"
       y="105.56719"
       style="fill:#fffb05;fill-opacity:1;stroke-width:0.26458299" />
    <path
       inkscape:connector-curvature="0"
       id="path4520"
       style="font-style:normal;font-variant:normal;font-weight:bold;font-stretch:normal;font-size:41.02130127px;line-height:1.25;font-family:Ubuntu;-inkscape-font-specification:'Ubuntu Bold';fill:#000000;fill-opacity:1;stroke:none;stroke-width:1.02552998"
       d="m 20.410294,125.60762 h 12.799127 q 5.70853,0 8.75308,2.54381 3.06458,2.52377 3.06458,7.21077 0,4.70704 -3.06458,7.25084 -3.04455,2.52377 -8.75308,2.52377 h -5.087603 v 10.3755 h -7.711524 z m 7.711524,5.58836 v 8.35248 h 4.266375 q 2.243353,0 3.465179,-1.08162 1.221826,-1.10164 1.221826,-3.10464 0,-2.00299 -1.221826,-3.08461 -1.221826,-1.08161 -3.465179,-1.08161 z" />
    <path
       inkscape:connector-curvature="0"
       id="path4522"
       style="font-style:normal;font-variant:normal;font-weight:bold;font-stretch:normal;font-size:41.02130127px;line-height:1.25;font-family:Ubuntu;-inkscape-font-specification:'Ubuntu Bold';fill:#000000;fill-opacity:1;stroke:none;stroke-width:1.02552998"
       d="m 50.134714,133.07879 h 7.170716 v 22.43352 h -7.170716 z m 0,-8.73305 h 7.170716 v 5.84874 h -7.170716 z" />
    <path
       inkscape:connector-curvature="0"
       id="path4524"
       style="font-style:normal;font-variant:normal;font-weight:bold;font-stretch:normal;font-size:41.02130127px;line-height:1.25;font-family:Ubuntu;-inkscape-font-specification:'Ubuntu Bold';fill:#000000;fill-opacity:1;stroke:none;stroke-width:1.02552998"
       d="m 86.789492,141.8519 v 13.66041 h -7.210776 v -2.22332 -8.2323 q 0,-2.90434 -0.140209,-4.00599 -0.12018,-1.10164 -0.440659,-1.62242 -0.420628,-0.70105 -1.141706,-1.08162 -0.721077,-0.4006 -1.642454,-0.4006 -2.243353,0 -3.525268,1.74261 -1.281916,1.72257 -1.281916,4.78715 v 11.03649 h -7.170716 v -22.43352 h 7.170716 v 3.28491 q 1.622424,-1.96293 3.445148,-2.88431 1.822724,-0.94141 4.026017,-0.94141 3.885807,0 5.8888,2.38356 2.023023,2.38357 2.023023,6.93036 z" />
    <path
       inkscape:connector-curvature="0"
       id="path4526"
       style="font-style:normal;font-variant:normal;font-weight:bold;font-stretch:normal;font-size:41.02130127px;line-height:1.25;font-family:Ubuntu;-inkscape-font-specification:'Ubuntu Bold';fill:#000000;fill-opacity:1;stroke:none;stroke-width:1.02552998"
       d="m 93.479486,124.34574 h 7.170714 v 16.96535 l 8.25233,-8.2323 h 8.33246 l -10.95638,10.29538 11.81766,12.13814 h -8.69299 l -8.75308,-9.35397 v 9.35397 h -7.170714 z" />
    <path
       inkscape:connector-curvature="0"
       id="path4528"
       style="font-style:normal;font-variant:normal;font-weight:bold;font-stretch:normal;font-size:41.02130127px;line-height:1.25;font-family:Ubuntu;-inkscape-font-specification:'Ubuntu Bold';fill:#000000;fill-opacity:1;stroke:none;stroke-width:1.02552998"
       d="m 117.85592,133.07879 h 7.17071 l 6.02901,15.22275 5.12767,-15.22275 h 7.17071 l -9.4341,24.5567 q -1.42212,3.74559 -3.32497,5.22781 -1.88281,1.50224 -4.98745,1.50224 h -4.14619 v -4.70703 h 2.24335 q 1.82272,0 2.64395,-0.58087 0.84126,-0.58087 1.30194,-2.08311 l 0.2003,-0.62093 z" />
    <path
       inkscape:connector-curvature="0"
       id="path4530"
       style="font-style:normal;font-variant:normal;font-weight:bold;font-stretch:normal;font-size:41.02130127px;line-height:1.25;font-family:Ubuntu;-inkscape-font-specification:'Ubuntu Bold';fill:#000000;fill-opacity:1;stroke:none;stroke-width:1.02552998"
       d="m 147.5603,124.34574 h 7.17072 v 31.16657 h -7.17072 z" />
    <path
       inkscape:connector-curvature="0"
       id="path4532"
       style="font-style:normal;font-variant:normal;font-weight:bold;font-stretch:normal;font-size:41.02130127px;line-height:1.25;font-family:Ubuntu;-inkscape-font-specification:'Ubuntu Bold';fill:#000000;fill-opacity:1;stroke:none;stroke-width:1.02552998"
       d="m 161.66138,133.07879 h 7.17071 v 22.43352 h -7.17071 z m 0,-8.73305 h 7.17071 v 5.84874 h -7.17071 z" />
    <path
       inkscape:connector-curvature="0"
       id="path4534"
       style="font-style:normal;font-variant:normal;font-weight:bold;font-stretch:normal;font-size:41.02130127px;line-height:1.25;font-family:Ubuntu;-inkscape-font-specification:'Ubuntu Bold';fill:#000000;fill-opacity:1;stroke:none;stroke-width:1.02552998"
       d="m 198.31616,141.8519 v 13.66041 h -7.21078 v -2.22332 -8.2323 q 0,-2.90434 -0.14021,-4.00599 -0.12018,-1.10164 -0.44066,-1.62242 -0.42063,-0.70105 -1.1417,-1.08162 -0.72108,-0.4006 -1.64246,-0.4006 -2.24335,0 -3.52527,1.74261 -1.28191,1.72257 -1.28191,4.78715 v 11.03649 h -7.17072 v -22.43352 h 7.17072 v 3.28491 q 1.62242,-1.96293 3.44515,-2.88431 1.82272,-0.94141 4.02601,-0.94141 3.88581,0 5.8888,2.38356 2.02303,2.38357 2.02303,6.93036 z" />
    <g
       aria-label="Moda Intima"
       style="font-style:normal;font-variant:normal;font-weight:normal;font-stretch:normal;font-size:12.69999981px;line-height:1.25;font-family:Chilanka;-inkscape-font-specification:Chilanka;fill:#000000;fill-opacity:1;stroke:none;stroke-width:0.302055"
       id="text8387"
       transform="translate(0,5.2916667)">
      <path
         d="m 20.410294,157.06912 h 1.866553 l 2.362646,6.30039 2.375049,-6.30039 h 1.866553 v 9.25835 h -1.221631 v -8.12974 l -2.387451,6.35 h -1.258838 l -2.387451,-6.35 v 8.12974 h -1.21543 z"
         style="font-style:normal;font-variant:normal;font-weight:normal;font-stretch:normal;font-size:12.69999981px;font-family:Chilanka;-inkscape-font-specification:Chilanka;fill:#000000;stroke-width:0.302055"
         id="path4545"
         inkscape:connector-curvature="0" />
      <path
         d="m 34.015665,160.18211 q -0.917774,0 -1.451074,0.71933 -0.533301,0.71314 -0.533301,1.95957 0,1.24644 0.527099,1.96578 0.533301,0.71313 1.457276,0.71313 0.911572,0 1.444873,-0.71934 0.533301,-0.71933 0.533301,-1.95957 0,-1.23403 -0.533301,-1.95337 -0.533301,-0.72553 -1.444873,-0.72553 z m 0,-0.96739 q 1.488281,0 2.337842,0.96739 0.84956,0.96738 0.84956,2.6789 0,1.70533 -0.84956,2.67891 -0.849561,0.96738 -2.337842,0.96738 -1.494483,0 -2.344043,-0.96738 -0.843359,-0.97358 -0.843359,-2.67891 0,-1.71152 0.843359,-2.6789 0.84956,-0.96739 2.344043,-0.96739 z"
         style="font-style:normal;font-variant:normal;font-weight:normal;font-stretch:normal;font-size:12.69999981px;font-family:Chilanka;-inkscape-font-specification:Chilanka;fill:#000000;stroke-width:0.302055"
         id="path4547"
         inkscape:connector-curvature="0" />
      <path
         d="m 43.658487,160.43636 v -3.75791 h 1.141016 v 9.64902 h -1.141016 v -1.0418 q -0.359668,0.62012 -0.911572,0.92398 -0.545703,0.29765 -1.314648,0.29765 -1.258838,0 -2.052588,-1.00459 -0.787549,-1.00459 -0.787549,-2.6417 0,-1.63711 0.787549,-2.6417 0.79375,-1.00459 2.052588,-1.00459 0.768945,0 1.314648,0.30386 0.551904,0.29766 0.911572,0.91778 z m -3.888134,2.42465 q 0,1.25884 0.514697,1.97818 0.520898,0.71313 1.426269,0.71313 0.905371,0 1.42627,-0.71313 0.520898,-0.71934 0.520898,-1.97818 0,-1.25883 -0.520898,-1.97197 -0.520899,-0.71933 -1.42627,-0.71933 -0.905371,0 -1.426269,0.71933 -0.514697,0.71314 -0.514697,1.97197 z"
         style="font-style:normal;font-variant:normal;font-weight:normal;font-stretch:normal;font-size:12.69999981px;font-family:Chilanka;-inkscape-font-specification:Chilanka;fill:#000000;stroke-width:0.302055"
         id="path4549"
         inkscape:connector-curvature="0" />
      <path
         d="m 50.306144,162.83621 q -1.382862,0 -1.916163,0.31626 -0.5333,0.31626 -0.5333,1.079 0,0.60772 0.396875,0.96739 0.403076,0.35346 1.091406,0.35346 0.948779,0 1.519287,-0.66972 0.576709,-0.67593 0.576709,-1.79214 v -0.25425 z m 2.27583,-0.47129 v 3.96255 h -1.141016 v -1.0542 q -0.390674,0.63252 -0.973584,0.93638 -0.58291,0.29765 -1.42627,0.29765 -1.066601,0 -1.699121,-0.59531 -0.626318,-0.60151 -0.626318,-1.6061 0,-1.17202 0.781348,-1.76734 0.787549,-0.59531 2.344043,-0.59531 h 1.599902 v -0.11162 q 0,-0.78755 -0.520898,-1.21543 -0.514698,-0.43408 -1.451075,-0.43408 -0.595312,0 -1.159619,0.14262 -0.564306,0.14263 -1.085205,0.42789 v -1.0542 q 0.626318,-0.24185 1.21543,-0.35967 0.589111,-0.12403 1.147217,-0.12403 1.506884,0 2.251025,0.78135 0.744141,0.78135 0.744141,2.36885 z"
         style="font-style:normal;font-variant:normal;font-weight:normal;font-stretch:normal;font-size:12.69999981px;font-family:Chilanka;-inkscape-font-specification:Chilanka;fill:#000000;stroke-width:0.302055"
         id="path4551"
         inkscape:connector-curvature="0" />
      <path
         d="m 59.031193,157.06912 h 1.252637 v 9.25835 h -1.252637 z"
         style="font-style:normal;font-variant:normal;font-weight:normal;font-stretch:normal;font-size:12.69999981px;font-family:Chilanka;-inkscape-font-specification:Chilanka;fill:#000000;stroke-width:0.302055"
         id="path4553"
         inkscape:connector-curvature="0" />
      <path
         d="m 68.500381,162.13548 v 4.19199 h -1.141016 v -4.15479 q 0,-0.98598 -0.384472,-1.47588 -0.384473,-0.48989 -1.153418,-0.48989 -0.923975,0 -1.457276,0.58911 -0.5333,0.58911 -0.5333,1.60611 v 3.92534 h -1.147217 v -6.94531 h 1.147217 v 1.079 q 0.409277,-0.62632 0.961181,-0.93638 0.558106,-0.31006 1.283643,-0.31006 1.196826,0 1.810742,0.74415 0.613916,0.73793 0.613916,2.17661 z"
         style="font-style:normal;font-variant:normal;font-weight:normal;font-stretch:normal;font-size:12.69999981px;font-family:Chilanka;-inkscape-font-specification:Chilanka;fill:#000000;stroke-width:0.302055"
         id="path4555"
         inkscape:connector-curvature="0" />
      <path
         d="m 71.917227,157.41018 v 1.97198 h 2.350244 v 0.88676 h -2.350244 v 3.77032 q 0,0.84956 0.229443,1.0914 0.235645,0.24185 0.948779,0.24185 h 1.172022 v 0.95498 h -1.172022 q -1.320849,0 -1.823144,-0.48989 -0.502295,-0.4961 -0.502295,-1.79834 v -3.77032 h -0.837158 v -0.88676 h 0.837158 v -1.97198 z"
         style="font-style:normal;font-variant:normal;font-weight:normal;font-stretch:normal;font-size:12.69999981px;font-family:Chilanka;-inkscape-font-specification:Chilanka;fill:#000000;stroke-width:0.302055"
         id="path4557"
         inkscape:connector-curvature="0" />
      <path
         d="m 75.774354,159.38216 h 1.141016 v 6.94531 h -1.141016 z m 0,-2.70371 h 1.141016 v 1.44487 h -1.141016 z"
         style="font-style:normal;font-variant:normal;font-weight:normal;font-stretch:normal;font-size:12.69999981px;font-family:Chilanka;-inkscape-font-specification:Chilanka;fill:#000000;stroke-width:0.302055"
         id="path4559"
         inkscape:connector-curvature="0" />
      <path
         d="m 84.704042,160.71541 q 0.427881,-0.76895 1.023194,-1.13482 0.595312,-0.36587 1.401465,-0.36587 1.085205,0 1.674316,0.76275 0.589111,0.75654 0.589111,2.15801 v 4.19199 h -1.147217 v -4.15479 q 0,-0.99838 -0.353466,-1.48208 -0.353467,-0.48369 -1.079004,-0.48369 -0.886768,0 -1.401465,0.58911 -0.514697,0.58911 -0.514697,1.60611 v 3.92534 h -1.147217 v -4.15479 q 0,-1.00459 -0.353467,-1.48208 -0.353467,-0.48369 -1.091406,-0.48369 -0.874365,0 -1.389063,0.59531 -0.514697,0.58912 -0.514697,1.59991 v 3.92534 h -1.147217 v -6.94531 h 1.147217 v 1.079 q 0.390674,-0.63872 0.936377,-0.94258 0.545703,-0.30386 1.296045,-0.30386 0.756543,0 1.283643,0.38448 0.5333,0.38447 0.787548,1.11621 z"
         style="font-style:normal;font-variant:normal;font-weight:normal;font-stretch:normal;font-size:12.69999981px;font-family:Chilanka;-inkscape-font-specification:Chilanka;fill:#000000;stroke-width:0.302055"
         id="path4561"
         inkscape:connector-curvature="0" />
      <path
         d="m 94.830558,162.83621 q -1.382862,0 -1.916163,0.31626 -0.5333,0.31626 -0.5333,1.079 0,0.60772 0.396875,0.96739 0.403076,0.35346 1.091406,0.35346 0.948779,0 1.519287,-0.66972 0.576709,-0.67593 0.576709,-1.79214 v -0.25425 z m 2.27583,-0.47129 v 3.96255 h -1.141016 v -1.0542 q -0.390674,0.63252 -0.973584,0.93638 -0.58291,0.29765 -1.426269,0.29765 -1.066602,0 -1.699122,-0.59531 -0.626318,-0.60151 -0.626318,-1.6061 0,-1.17202 0.781348,-1.76734 0.787549,-0.59531 2.344043,-0.59531 h 1.599902 v -0.11162 q 0,-0.78755 -0.520898,-1.21543 -0.514698,-0.43408 -1.451075,-0.43408 -0.595312,0 -1.159619,0.14262 -0.564306,0.14263 -1.085205,0.42789 v -1.0542 q 0.626319,-0.24185 1.21543,-0.35967 0.589111,-0.12403 1.147217,-0.12403 1.506884,0 2.251025,0.78135 0.744141,0.78135 0.744141,2.36885 z"
         style="font-style:normal;font-variant:normal;font-weight:normal;font-stretch:normal;font-size:12.69999981px;font-family:Chilanka;-inkscape-font-specification:Chilanka;fill:#000000;stroke-width:0.302055"
         id="path4563"
         inkscape:connector-curvature="0" />
    </g>
  </g>
</svg>
